<?xml version="1.0" encoding="UTF-8" standalone="no"?>
<svg width="74px" height="74px" viewBox="0 0 74 74" version="1.1" xmlns="http://www.w3.org/2000/svg" xmlns:xlink="http://www.w3.org/1999/xlink">
    <!-- Generator: Sketch 49.3 (51167) - http://www.bohemiancoding.com/sketch -->
    <title>contactIcon</title>
    <desc>Created with Sketch.</desc>
    <defs></defs>
    <g id="contactIcon" stroke="none" stroke-width="1" fill="none" fill-rule="evenodd">
        <g id="Group-2">
            <g id="Group" fill="#2BDFE5">
                <circle id="Oval" cx="37" cy="37" r="37"></circle>
            </g>
            <path d="M23.8,40 L15,48 L16.76,40 L15,40 C12.790861,40 11,38.209139 11,36 L11,20 C11,17.790861 12.790861,16 15,16 L41,16 C43.209139,16 45,17.790861 45,20 L45,36 C45,38.209139 43.209139,40 41,40 L23.8,40 Z" id="Combined-Shape" fill="#FFFFFF"></path>
            <path d="M50,29 L60,29 C62.209139,29 64,30.790861 64,33 L64,49 C64,51.209139 62.209139,53 60,53 L58.24,53 L60,61 L51.2,53 L34,53 C31.790861,53 30,51.209139 30,49 L30,43 L46,43 C48.209139,43 50,41.209139 50,39 L50,29 Z" id="Combined-Shape" fill="#FFFFFF"></path>
        </g>
    </g>
</svg>