<?xml version="1.0" encoding="UTF-8" standalone="no"?>
<svg width="74px" height="74px" viewBox="0 0 74 74" version="1.1" xmlns="http://www.w3.org/2000/svg" xmlns:xlink="http://www.w3.org/1999/xlink">
    <!-- Generator: Sketch 49.3 (51167) - http://www.bohemiancoding.com/sketch -->
    <title>pricingIcon</title>
    <desc>Created with Sketch.</desc>
    <defs>
        <rect id="path-1" x="17" y="24" width="42" height="26" rx="2"></rect>
        <rect id="path-2" x="12" y="29" width="42" height="26" rx="2"></rect>
    </defs>
    <g id="pricingIcon" stroke="none" stroke-width="1" fill="none" fill-rule="evenodd">
        <g id="Group">
            <circle id="Oval" fill="#2BDFE5" cx="37" cy="37" r="37"></circle>
            <rect id="Rectangle-Copy-2" stroke="#FFFFFF" stroke-width="3" x="23.5" y="20.5" width="39" height="23" rx="2"></rect>
            <g id="Rectangle-Copy">
                <use fill="#2BDFE5" fill-rule="evenodd" xlink:href="#path-1"></use>
                <rect stroke="#FFFFFF" stroke-width="3" x="18.5" y="25.5" width="39" height="23" rx="2"></rect>
            </g>
            <g id="Rectangle">
                <use fill="#2BDFE5" fill-rule="evenodd" xlink:href="#path-2"></use>
                <rect stroke="#FFFFFF" stroke-width="3" x="13.5" y="30.5" width="39" height="23" rx="2"></rect>
            </g>
            <ellipse id="Oval-3" fill="#FFFFFF" cx="33.5" cy="42" rx="5.5" ry="8"></ellipse>
            <text id="$" font-family="Arial-Black, Arial Black" font-size="14" font-weight="700" letter-spacing="-6.77314758" fill="#2BDFE5">
                <tspan x="29" y="47">$</tspan>
            </text>
            <ellipse id="Oval-4" fill="#FFFFFF" transform="translate(15.331887, 33.022521) rotate(26.000000) translate(-15.331887, -33.022521) " cx="15.3318871" cy="33.0225215" rx="2" ry="3.5"></ellipse>
            <ellipse id="Oval-4-Copy" fill="#FFFFFF" transform="translate(16.081098, 50.917959) rotate(142.000000) translate(-16.081098, -50.917959) " cx="16.0810976" cy="50.9179594" rx="2" ry="3.5"></ellipse>
            <ellipse id="Oval-4-Copy-2" fill="#FFFFFF" transform="translate(50.331887, 51.022521) rotate(26.000000) translate(-50.331887, -51.022521) " cx="50.3318871" cy="51.0225215" rx="2" ry="3.5"></ellipse>
            <ellipse id="Oval-4-Copy-3" fill="#FFFFFF" transform="translate(49.991083, 32.878673) rotate(-43.000000) translate(-49.991083, -32.878673) " cx="49.9910834" cy="32.8786734" rx="2" ry="3.5"></ellipse>
            <ellipse id="Oval-2" fill="#FFFFFF" cx="22.5" cy="42.5" rx="2.5" ry="3.5"></ellipse>
            <ellipse id="Oval-2-Copy" fill="#FFFFFF" cx="44.5" cy="42.5" rx="2.5" ry="3.5"></ellipse>
        </g>
    </g>
</svg>