<?xml version="1.0" encoding="UTF-8" standalone="no"?>
<svg width="74px" height="74px" viewBox="0 0 74 74" version="1.1" xmlns="http://www.w3.org/2000/svg" xmlns:xlink="http://www.w3.org/1999/xlink">
    <!-- Generator: Sketch 49.3 (51167) - http://www.bohemiancoding.com/sketch -->
    <title>servicesIcon</title>
    <desc>Created with Sketch.</desc>
    <defs></defs>
    <g id="servicesIcon" stroke="none" stroke-width="1" fill="none" fill-rule="evenodd">
        <g id="Group">
            <circle id="Oval-5" fill="#2BDFE5" cx="37" cy="37" r="37"></circle>
            <rect id="Rectangle-17" fill="#F2F2F2" transform="translate(34.000000, 35.500000) rotate(-11.000000) translate(-34.000000, -35.500000) " x="10" y="19" width="48" height="33"></rect>
            <path d="M13.0488256,24 C13.0165629,23.8358331 13,23.6690045 13,23.5 C13,21.0147186 16.581722,19 21,19 C25.418278,19 29,21.0147186 29,23.5 C29,23.6690045 28.9834371,23.8358331 28.9511744,24 L61,24 L61,56 L13,56 L13,24 L13.0488256,24 Z" id="Combined-Shape" fill="#FFFFFF" transform="translate(37.000000, 37.500000) scale(-1, 1) translate(-37.000000, -37.500000) "></path>
            <rect id="Rectangle-16" fill="#2BDFE5" x="18" y="28" width="15" height="3"></rect>
        </g>
    </g>
</svg>